# xmcd
#
# Track frame offsets: 
#        150
#        16492
#        35484
#        67432
#        84427
#        93722
#        111033
#        132118
#        156570
#        174256
#        196124
#        208080
#        234298
#
# Disc length: 3454 seconds
#
# Revision: 0
# Processed by: cddbd v1.5.2PL0 Copyright (c) Steve Scherf et al.
# Submitted via: ExactAudioCopyFreeDBPlugin 1.0
#
DISCID=b00d7c0d
DTITLE=Little Mike And The Tornadoes - All The Right Moves
DYEAR=2014
DGENRE=Blues
TTITLE0=Hard Hard Way
TTITLE1=So Many Problems
TTITLE2=Since My Mother Been Ill
TTITLE3=(I Got) Drunk Last Night
TTITLE4=Sam's Stomp
TTITLE5=All The Right Moves
TTITLE6=Little On The Side
TTITLE7=Blues Is Killing Me
TTITLE8=Wonder Why
TTITLE9=All The Time
TTITLE10=I Won't Be Your Fool
TTITLE11=Stuck Out On The Highway
TTITLE12=Close To My Baby
EXTD=
EXTT0=
EXTT1=
EXTT2=
EXTT3=
EXTT4=
EXTT5=
EXTT6=
EXTT7=
EXTT8=
EXTT9=
EXTT10=
EXTT11=
EXTT12=
PLAYORDER=
